<?xml-stylesheet type="text/css" href="hsu.css"?><svg xmlns="http://www.w3.org/2000/svg" viewbox="0 0 512 512"><title>三</title><metadata><rdf:RDF xmlns:cc="http://web.resource.org/cc/" xmlns:rdf="http://www.w3.org/1999/02/22-rdf-syntax-ns#"><cc:work rdf:about=""><cc:license rdf:resource="https://github.com/arthurhsu/calligraphy/blob/master/LICENSE"/></cc:work></rdf:RDF></metadata><path class="hsu" d="M 162 172 C 187.91 174.69 213.82 177.38 239 176 264.18 174.62 288.62 169.18 306 164 323.38 158.82 333.69 153.91 344 149"></path><path class="hsu" d="M 166 269 C 196.42 262.50 226.83 256.00 256 252 285.17 248.00 313.08 246.50 341 245"></path><path class="hsu" d="M 55 383 C 93.09 376.10 131.18 369.20 166 362 200.82 354.80 232.38 347.29 263 343 293.62 338.71 323.32 337.63 354 339 384.68 340.37 416.34 344.18 448 348"></path></svg>