<?xml-stylesheet type="text/css" href="hsu.css"?><svg xmlns="http://www.w3.org/2000/svg" viewbox="0 0 512 512"><title>下</title><metadata><rdf:RDF xmlns:cc="http://web.resource.org/cc/" xmlns:rdf="http://www.w3.org/1999/02/22-rdf-syntax-ns#"><cc:work rdf:about=""><cc:license rdf:resource="https://github.com/arthurhsu/calligraphy/blob/master/LICENSE"/></cc:work></rdf:RDF></metadata><path class="hsu" d="M 85 220 C 93.47 223.40 101.94 226.81 130 222 158.06 217.19 205.71 204.17 248 195 290.29 185.83 327.23 180.52 356 181 384.77 181.48 405.39 187.74 426 194"></path><path class="hsu" d="M 250 236 C 256.09 242.98 262.18 249.96 263 266 263.82 282.04 259.38 307.16 257 333 254.62 358.84 254.31 385.42 254 412"></path><path class="hsu" d="M 313 270 C 323.33 274.25 333.67 278.50 342 285 350.33 291.50 356.67 300.25 363 309"></path></svg>