<?xml-stylesheet type="text/css" href="hsu.css"?><svg xmlns="http://www.w3.org/2000/svg" viewbox="0 0 512 512"><title>中</title><metadata><rdf:RDF xmlns:cc="http://web.resource.org/cc/" xmlns:rdf="http://www.w3.org/1999/02/22-rdf-syntax-ns#"><cc:work rdf:about=""><cc:license rdf:resource="https://github.com/arthurhsu/calligraphy/blob/master/LICENSE"/></cc:work></rdf:RDF></metadata><path class="hsu" d="M 120 198 C 127.17 203.17 134.33 208.33 141 226 147.67 243.67 153.83 273.83 160 304"></path><path class="hsu" d="M 171 209 C 201.35 199.48 231.70 189.96 259 183 286.30 176.04 310.54 171.65 333 175 355.46 178.35 376.12 189.44 383 194 389.88 198.56 382.96 196.59 371 207 359.04 217.41 342.02 240.21 325 263"></path><path class="hsu" d="M 184 287 C 207.29 280.89 230.58 274.78 254 271 277.42 267.22 300.98 265.78 317 266 333.02 266.22 341.51 268.11 350 270"></path><path class="hsu" d="M 248 67 C 252.96 70.68 257.93 74.37 261 79 264.07 83.63 265.25 89.21 265 91 264.75 92.79 263.07 90.80 262 151 260.93 211.20 260.46 333.60 260 456"></path></svg>