<svg xmlns="http://www.w3.org/2000/svg" viewbox="0 0 512 512"><metadata><rdf:RDF xmlns:cc="http://web.resource.org/cc/" xmlns:rdf="http://www.w3.org/1999/02/22-rdf-syntax-ns#"><cc:work rdf:about=""><cc:license rdf:resource="https://github.com/arthurhsu/calligraphy/blob/master/LICENSE"/></cc:work></rdf:RDF></metadata><title>中</title><g id="b0"><path fill="none" stroke="blue" stroke-width="16" stroke-linecap="round" d="M 120 198 C 127.17 203.17 134.33 208.33 141 226"></path><path fill="none" stroke="blue" stroke-width="16" stroke-linecap="round" d="M 141 226 C 147.67 243.67 153.83 273.83 160 304"></path></g><g id="b1"><path fill="none" stroke="blue" stroke-width="16" stroke-linecap="round" d="M 171 209 C 201.35 199.48 231.70 189.96 259 183"></path><path fill="none" stroke="blue" stroke-width="16" stroke-linecap="round" d="M 259 183 C 286.30 176.04 310.54 171.65 333 175"></path><path fill="none" stroke="blue" stroke-width="16" stroke-linecap="round" d="M 333 175 C 355.46 178.35 376.12 189.44 383 194"></path><path fill="none" stroke="blue" stroke-width="16" stroke-linecap="round" d="M 383 194 C 389.88 198.56 382.96 196.59 371 207"></path><path fill="none" stroke="blue" stroke-width="16" stroke-linecap="round" d="M 371 207 C 359.04 217.41 342.02 240.21 325 263"></path></g><g id="b2"><path fill="none" stroke="blue" stroke-width="16" stroke-linecap="round" d="M 184 287 C 207.29 280.89 230.58 274.78 254 271"></path><path fill="none" stroke="blue" stroke-width="16" stroke-linecap="round" d="M 254 271 C 277.42 267.22 300.98 265.78 317 266"></path><path fill="none" stroke="blue" stroke-width="16" stroke-linecap="round" d="M 317 266 C 333.02 266.22 341.51 268.11 350 270"></path></g><g id="b3"><path fill="none" stroke="blue" stroke-width="16" stroke-linecap="round" d="M 248 67 C 252.96 70.68 257.93 74.37 261 79"></path><path fill="none" stroke="blue" stroke-width="16" stroke-linecap="round" d="M 261 79 C 264.07 83.63 265.25 89.21 265 91"></path><path fill="none" stroke="blue" stroke-width="16" stroke-linecap="round" d="M 265 91 C 264.75 92.79 263.07 90.80 262 151"></path><path fill="none" stroke="blue" stroke-width="16" stroke-linecap="round" d="M 262 151 C 260.93 211.20 260.46 333.60 260 456"></path></g></svg>