<svg xmlns="http://www.w3.org/2000/svg" viewbox="0 0 512 512"><title>交</title><metadata><rdf:RDF xmlns:cc="http://web.resource.org/cc/" xmlns:rdf="http://www.w3.org/1999/02/22-rdf-syntax-ns#"><cc:work rdf:about=""><cc:license rdf:resource="https://github.com/arthurhsu/calligraphy/blob/master/LICENSE"/></cc:work></rdf:RDF></metadata><g id="b0"><path fill="none" stroke="blue" stroke-width="16" stroke-linecap="round" d="M 224 80 C 233.50 83.08 243.00 86.17 252 91"></path><path fill="none" stroke="blue" stroke-width="16" stroke-linecap="round" d="M 252 91 C 261.00 95.83 269.50 102.42 278 109"></path></g><g id="b1"><path fill="none" stroke="blue" stroke-width="16" stroke-linecap="round" d="M 114 203 C 128.29 206.23 142.57 209.45 161 207"></path><path fill="none" stroke="blue" stroke-width="16" stroke-linecap="round" d="M 161 207 C 179.43 204.55 202.00 196.42 226 188"></path><path fill="none" stroke="blue" stroke-width="16" stroke-linecap="round" d="M 226 188 C 250.00 179.58 275.43 170.88 294 164"></path><path fill="none" stroke="blue" stroke-width="16" stroke-linecap="round" d="M 294 164 C 312.57 157.12 324.29 152.06 336 147"></path></g><g id="b2"><path fill="none" stroke="blue" stroke-width="16" stroke-linecap="round" d="M 202 229 C 193.27 244.27 184.53 259.53 175 272"></path><path fill="none" stroke="blue" stroke-width="16" stroke-linecap="round" d="M 175 272 C 165.47 284.47 155.13 294.13 144 301"></path><path fill="none" stroke="blue" stroke-width="16" stroke-linecap="round" d="M 144 301 C 132.87 307.87 120.93 311.93 109 316"></path></g><g id="b3"><path fill="none" stroke="blue" stroke-width="16" stroke-linecap="round" d="M 310 206 C 318.33 207.33 326.67 208.67 335 212"></path><path fill="none" stroke="blue" stroke-width="16" stroke-linecap="round" d="M 335 212 C 343.33 215.33 351.67 220.67 360 226"></path></g><g id="b4"><path fill="none" stroke="blue" stroke-width="16" stroke-linecap="round" d="M 284 260 C 282.37 281.85 280.74 303.70 277 322"></path><path fill="none" stroke="blue" stroke-width="16" stroke-linecap="round" d="M 277 322 C 273.26 340.30 267.42 355.04 256 371"></path><path fill="none" stroke="blue" stroke-width="16" stroke-linecap="round" d="M 256 371 C 244.58 386.96 227.60 404.13 200 417"></path><path fill="none" stroke="blue" stroke-width="16" stroke-linecap="round" d="M 200 417 C 172.40 429.87 134.20 438.43 96 447"></path></g><g id="b5"><path fill="none" stroke="blue" stroke-width="16" stroke-linecap="round" d="M 199 292 C 251.53 332.44 304.07 372.89 338 397"></path><path fill="none" stroke="blue" stroke-width="16" stroke-linecap="round" d="M 338 397 C 371.93 421.11 387.27 428.89 401 436"></path><path fill="none" stroke="blue" stroke-width="16" stroke-linecap="round" d="M 401 436 C 414.73 443.11 426.87 449.56 439 456"></path></g></svg>