<svg xmlns="http://www.w3.org/2000/svg" viewbox="0 0 512 512"><title>交</title><metadata><rdf:RDF xmlns:cc="http://web.resource.org/cc/" xmlns:rdf="http://www.w3.org/1999/02/22-rdf-syntax-ns#"><cc:work rdf:about=""><cc:license rdf:resource="https://github.com/arthurhsu/calligraphy/blob/master/LICENSE"/></cc:work></rdf:RDF></metadata><path fill="none" stroke="blue" stroke-width="16" stroke-linecap="round" d="M 224 80 C 233.50 83.08 243.00 86.17 252 91 261.00 95.83 269.50 102.42 278 109"></path><path fill="none" stroke="blue" stroke-width="16" stroke-linecap="round" d="M 114 203 C 128.29 206.23 142.57 209.45 161 207 179.43 204.55 202.00 196.42 226 188 250.00 179.58 275.43 170.88 294 164 312.57 157.12 324.29 152.06 336 147"></path><path fill="none" stroke="blue" stroke-width="16" stroke-linecap="round" d="M 202 229 C 193.27 244.27 184.53 259.53 175 272 165.47 284.47 155.13 294.13 144 301 132.87 307.87 120.93 311.93 109 316"></path><path fill="none" stroke="blue" stroke-width="16" stroke-linecap="round" d="M 310 206 C 318.33 207.33 326.67 208.67 335 212 343.33 215.33 351.67 220.67 360 226"></path><path fill="none" stroke="blue" stroke-width="16" stroke-linecap="round" d="M 284 260 C 282.37 281.85 280.74 303.70 277 322 273.26 340.30 267.42 355.04 256 371 244.58 386.96 227.60 404.13 200 417 172.40 429.87 134.20 438.43 96 447"></path><path fill="none" stroke="blue" stroke-width="16" stroke-linecap="round" d="M 199 292 C 251.53 332.44 304.07 372.89 338 397 371.93 421.11 387.27 428.89 401 436 414.73 443.11 426.87 449.56 439 456"></path></svg>