<svg xmlns="http://www.w3.org/2000/svg" viewbox="0 0 512 512"><title>公</title><metadata><rdf:RDF xmlns:cc="http://web.resource.org/cc/" xmlns:rdf="http://www.w3.org/1999/02/22-rdf-syntax-ns#"><cc:work rdf:about=""><cc:license rdf:resource="https://github.com/arthurhsu/calligraphy/blob/master/LICENSE"/></cc:work></rdf:RDF></metadata><g id="b0"><path fill="none" stroke="blue" stroke-width="16" stroke-linecap="round" d="M 170 148 C 176.57 154.02 183.14 160.04 181 171"></path><path fill="none" stroke="blue" stroke-width="16" stroke-linecap="round" d="M 181 171 C 178.86 181.96 168.00 197.88 154 218"></path><path fill="none" stroke="blue" stroke-width="16" stroke-linecap="round" d="M 154 218 C 140.00 238.12 122.86 262.46 108 277"></path><path fill="none" stroke="blue" stroke-width="16" stroke-linecap="round" d="M 108 277 C 93.14 291.54 80.57 296.27 68 301"></path></g><g id="b1"><path fill="none" stroke="blue" stroke-width="16" stroke-linecap="round" d="M 310 133 C 328.42 141.08 346.83 149.17 363 158"></path><path fill="none" stroke="blue" stroke-width="16" stroke-linecap="round" d="M 363 158 C 379.17 166.83 393.08 176.42 407 186"></path></g><g id="b2"><path fill="none" stroke="blue" stroke-width="16" stroke-linecap="round" d="M 253 232 C 258.33 241.53 263.65 251.06 244 280"></path><path fill="none" stroke="blue" stroke-width="16" stroke-linecap="round" d="M 244 280 C 224.35 308.94 179.72 357.28 168 378"></path><path fill="none" stroke="blue" stroke-width="16" stroke-linecap="round" d="M 168 378 C 156.28 398.72 177.46 391.81 199 386"></path><path fill="none" stroke="blue" stroke-width="16" stroke-linecap="round" d="M 199 386 C 220.54 380.19 242.44 375.48 261 368"></path><path fill="none" stroke="blue" stroke-width="16" stroke-linecap="round" d="M 261 368 C 279.56 360.52 294.78 350.26 310 340"></path></g><g id="b3"><path fill="none" stroke="blue" stroke-width="16" stroke-linecap="round" d="M 331 310 C 338.84 321.18 346.69 332.36 355 346"></path><path fill="none" stroke="blue" stroke-width="16" stroke-linecap="round" d="M 355 346 C 363.31 359.64 372.09 375.76 378 390"></path><path fill="none" stroke="blue" stroke-width="16" stroke-linecap="round" d="M 378 390 C 383.91 404.24 386.96 416.62 390 429"></path></g></svg>