<svg xmlns="http://www.w3.org/2000/svg" viewbox="0 0 512 512"><title>公</title><metadata><rdf:RDF xmlns:cc="http://web.resource.org/cc/" xmlns:rdf="http://www.w3.org/1999/02/22-rdf-syntax-ns#"><cc:work rdf:about=""><cc:license rdf:resource="https://github.com/arthurhsu/calligraphy/blob/master/LICENSE"/></cc:work></rdf:RDF></metadata><path fill="none" stroke="blue" stroke-width="16" stroke-linecap="round" d="M 170 148 C 176.57 154.02 183.14 160.04 181 171 178.86 181.96 168.00 197.88 154 218 140.00 238.12 122.86 262.46 108 277 93.14 291.54 80.57 296.27 68 301"></path><path fill="none" stroke="blue" stroke-width="16" stroke-linecap="round" d="M 310 133 C 328.42 141.08 346.83 149.17 363 158 379.17 166.83 393.08 176.42 407 186"></path><path fill="none" stroke="blue" stroke-width="16" stroke-linecap="round" d="M 253 232 C 258.33 241.53 263.65 251.06 244 280 224.35 308.94 179.72 357.28 168 378 156.28 398.72 177.46 391.81 199 386 220.54 380.19 242.44 375.48 261 368 279.56 360.52 294.78 350.26 310 340"></path><path fill="none" stroke="blue" stroke-width="16" stroke-linecap="round" d="M 331 310 C 338.84 321.18 346.69 332.36 355 346 363.31 359.64 372.09 375.76 378 390 383.91 404.24 386.96 416.62 390 429"></path></svg>