<svg xmlns="http://www.w3.org/2000/svg" viewbox="0 0 512 512"><metadata><rdf:RDF xmlns:cc="http://web.resource.org/cc/" xmlns:rdf="http://www.w3.org/1999/02/22-rdf-syntax-ns#"><cc:work rdf:about=""><cc:license rdf:resource="https://github.com/arthurhsu/calligraphy/blob/master/LICENSE"/></cc:work></rdf:RDF></metadata><title>千</title><g id="b0"><path fill="none" stroke="blue" stroke-width="16" stroke-linecap="round" d="M 294 75 C 305.42 82.85 316.83 90.70 318 95"></path><path fill="none" stroke="blue" stroke-width="16" stroke-linecap="round" d="M 318 95 C 319.17 99.30 310.08 100.04 302 103"></path><path fill="none" stroke="blue" stroke-width="16" stroke-linecap="round" d="M 302 103 C 293.92 105.96 286.83 111.13 272 115"></path><path fill="none" stroke="blue" stroke-width="16" stroke-linecap="round" d="M 272 115 C 257.17 118.87 234.58 121.43 212 124"></path></g><g id="b1"><path fill="none" stroke="blue" stroke-width="16" stroke-linecap="round" d="M 73 252 C 78.79 256.43 84.58 260.85 101 259"></path><path fill="none" stroke="blue" stroke-width="16" stroke-linecap="round" d="M 101 259 C 117.42 257.15 144.46 249.02 166 243"></path><path fill="none" stroke="blue" stroke-width="16" stroke-linecap="round" d="M 166 243 C 187.54 236.98 203.57 233.07 236 227"></path><path fill="none" stroke="blue" stroke-width="16" stroke-linecap="round" d="M 236 227 C 268.43 220.93 317.27 212.69 351 210"></path><path fill="none" stroke="blue" stroke-width="16" stroke-linecap="round" d="M 351 210 C 384.73 207.31 403.37 210.15 422 213"></path></g><g id="b2"><path fill="none" stroke="blue" stroke-width="16" stroke-linecap="round" d="M 262 147 C 266.60 153.98 271.20 160.96 275 166"></path><path fill="none" stroke="blue" stroke-width="16" stroke-linecap="round" d="M 275 166 C 278.80 171.04 281.81 174.15 282 186"></path><path fill="none" stroke="blue" stroke-width="16" stroke-linecap="round" d="M 282 186 C 282.19 197.85 279.55 218.46 279 250"></path><path fill="none" stroke="blue" stroke-width="16" stroke-linecap="round" d="M 279 250 C 278.45 281.54 279.99 324.01 280 360"></path><path fill="none" stroke="blue" stroke-width="16" stroke-linecap="round" d="M 280 360 C 280.01 395.99 278.51 425.49 277 455"></path></g></svg>