<svg xmlns="http://www.w3.org/2000/svg" viewbox="0 0 512 512"><title>天</title><metadata><rdf:RDF xmlns:cc="http://web.resource.org/cc/" xmlns:rdf="http://www.w3.org/1999/02/22-rdf-syntax-ns#"><cc:work rdf:about=""><cc:license rdf:resource="https://github.com/arthurhsu/calligraphy/blob/master/LICENSE"/></cc:work></rdf:RDF></metadata><g id="b0"><path fill="none" stroke="blue" stroke-width="16" stroke-linecap="round" d="M 171 124 C 181.96 128.29 192.93 132.57 207 134"></path><path fill="none" stroke="blue" stroke-width="16" stroke-linecap="round" d="M 207 134 C 221.07 135.43 238.25 134.00 255 130"></path><path fill="none" stroke="blue" stroke-width="16" stroke-linecap="round" d="M 255 130 C 271.75 126.00 288.07 119.43 301 113"></path><path fill="none" stroke="blue" stroke-width="16" stroke-linecap="round" d="M 301 113 C 313.93 106.57 323.46 100.29 333 94"></path></g><g id="b1"><path fill="none" stroke="blue" stroke-width="16" stroke-linecap="round" d="M 108 290 C 137.00 279.07 166.00 268.13 193 258"></path><path fill="none" stroke="blue" stroke-width="16" stroke-linecap="round" d="M 193 258 C 220.00 247.87 245.00 238.53 272 232"></path><path fill="none" stroke="blue" stroke-width="16" stroke-linecap="round" d="M 272 232 C 299.00 225.47 328.00 221.73 357 218"></path></g><g id="b2"><path fill="none" stroke="blue" stroke-width="16" stroke-linecap="round" d="M 246 165 C 247.55 178.39 249.10 191.79 245 219"></path><path fill="none" stroke="blue" stroke-width="16" stroke-linecap="round" d="M 245 219 C 240.90 246.21 231.17 287.25 214 322"></path><path fill="none" stroke="blue" stroke-width="16" stroke-linecap="round" d="M 214 322 C 196.83 356.75 172.24 385.21 150 402"></path><path fill="none" stroke="blue" stroke-width="16" stroke-linecap="round" d="M 150 402 C 127.76 418.79 107.88 423.89 88 429"></path></g><g id="b3"><path fill="none" stroke="blue" stroke-width="16" stroke-linecap="round" d="M 243 262 C 284.89 308.78 326.78 355.56 352 383"></path><path fill="none" stroke="blue" stroke-width="16" stroke-linecap="round" d="M 352 383 C 377.22 410.44 385.78 418.56 400 425"></path><path fill="none" stroke="blue" stroke-width="16" stroke-linecap="round" d="M 400 425 C 414.22 431.44 434.11 436.22 454 441"></path></g></svg>