<?xml-stylesheet type="text/css" href="hsu.css"?><svg xmlns="http://www.w3.org/2000/svg" viewbox="0 0 512 512"><title>白</title><metadata><rdf:RDF xmlns:cc="http://web.resource.org/cc/" xmlns:rdf="http://www.w3.org/1999/02/22-rdf-syntax-ns#"><cc:work rdf:about=""><cc:license rdf:resource="https://github.com/arthurhsu/calligraphy/blob/master/LICENSE"/></cc:work></rdf:RDF></metadata><path class="hsu" d="M 252 109 C 245.17 123.08 238.33 137.17 228 148 217.67 158.83 203.83 166.42 190 174"></path><path class="hsu" d="M 88 217 C 96.17 229.88 104.35 242.75 114 255 123.65 267.25 134.79 278.88 143 297 151.21 315.13 156.49 339.75 160 360 163.51 380.25 165.26 396.13 167 412"></path><path class="hsu" d="M 223 234 C 258.44 221.23 293.88 208.45 319 203 344.12 197.55 358.93 199.42 375 206 391.07 212.58 408.39 223.85 415 228 421.61 232.15 417.51 229.16 410 252 402.49 274.84 391.55 323.49 383 362 374.45 400.51 368.27 428.86 359 437 349.73 445.14 337.36 433.07 325 421"></path><path class="hsu" d="M 212 313 C 231.33 310.25 250.67 307.50 267 304 283.33 300.50 296.67 296.25 310 292"></path><path class="hsu" d="M 193 402 C 204.16 402.36 215.31 402.71 229 400 242.69 397.29 258.91 391.51 276 387 293.09 382.49 311.04 379.24 329 376"></path></svg>