<?xml-stylesheet type="text/css" href="hsu.css"?><svg xmlns="http://www.w3.org/2000/svg" viewbox="0 0 512 512"><title>百</title><metadata><rdf:RDF xmlns:cc="http://web.resource.org/cc/" xmlns:rdf="http://www.w3.org/1999/02/22-rdf-syntax-ns#"><cc:work rdf:about=""><cc:license rdf:resource="https://github.com/arthurhsu/calligraphy/blob/master/LICENSE"/></cc:work></rdf:RDF></metadata><path class="hsu" d="M 69 184 C 83.27 187.68 97.54 191.37 128 187 158.46 182.63 205.13 170.21 252 160 298.88 149.79 345.96 141.80 377 140 408.04 138.20 423.02 142.60 438 147"></path><path class="hsu" d="M 258 184 C 262.00 187.25 266.00 190.50 262 201 258.00 211.50 246.00 229.25 234 247"></path><path class="hsu" d="M 186 258 C 194.62 267.18 203.24 276.36 207 282 210.76 287.64 209.64 289.76 210 306 210.36 322.24 212.18 352.62 214 383"></path><path class="hsu" d="M 280 247 C 291.14 241.31 302.28 235.61 314 235 325.72 234.39 338.03 238.86 343 241 347.97 243.14 345.60 242.93 344 265 342.40 287.07 341.57 331.40 339 362 336.43 392.60 332.12 409.46 327 414 321.88 418.54 315.94 410.77 310 403"></path><path class="hsu" d="M 236 320 C 244.42 317.42 252.83 314.83 262 313 271.17 311.17 281.08 310.08 291 309"></path><path class="hsu" d="M 221 383 C 231.25 380.92 241.50 378.83 255 377 268.50 375.17 285.25 373.58 302 372"></path></svg>