<svg xmlns="http://www.w3.org/2000/svg" viewbox="0 0 512 512"><title>文</title><metadata><rdf:RDF xmlns:cc="http://web.resource.org/cc/" xmlns:rdf="http://www.w3.org/1999/02/22-rdf-syntax-ns#"><cc:work rdf:about=""><cc:license rdf:resource="https://github.com/arthurhsu/calligraphy/blob/master/LICENSE"/></cc:work></rdf:RDF></metadata><path fill="none" stroke="blue" stroke-width="16" stroke-linecap="round" d="M 231 79 C 239.83 83.00 248.67 87.00 257 92 265.33 97.00 273.17 103.00 281 109"></path><path fill="none" stroke="blue" stroke-width="16" stroke-linecap="round" d="M 126 215 C 137.53 218.58 149.07 222.16 177 215 204.93 207.84 249.27 189.96 282 176 314.73 162.04 335.87 152.02 357 142"></path><path fill="none" stroke="blue" stroke-width="16" stroke-linecap="round" d="M 285 221 C 285.04 247.50 285.08 274.00 281 299 276.92 324.00 268.71 347.50 251 369 233.29 390.50 206.08 410.00 177 421 147.92 432.00 116.96 434.50 86 437"></path><path fill="none" stroke="blue" stroke-width="16" stroke-linecap="round" d="M 177 265 C 195.74 276.38 214.49 287.76 236 306 257.51 324.24 281.79 349.33 304 370 326.21 390.67 346.35 406.90 369 419 391.65 431.10 416.83 439.05 442 447"></path></svg>