<?xml-stylesheet type="text/css" href="hsu.css"?><svg xmlns="http://www.w3.org/2000/svg" viewbox="0 0 512 512"><title>日</title><metadata><rdf:RDF xmlns:cc="http://web.resource.org/cc/" xmlns:rdf="http://www.w3.org/1999/02/22-rdf-syntax-ns#"><cc:work rdf:about=""><cc:license rdf:resource="https://github.com/arthurhsu/calligraphy/blob/master/LICENSE"/></cc:work></rdf:RDF></metadata><path class="hsu" d="M 135 147 C 150.44 155.84 165.89 164.69 173 191 180.11 217.31 178.89 261.09 178 297 177.11 332.91 176.56 360.96 176 389"></path><path class="hsu" d="M 221 135 C 236.15 128.52 251.29 122.04 267 118 282.71 113.96 298.98 112.37 315 117 331.02 121.63 346.78 132.49 350 136 353.22 139.51 343.92 135.66 340 163 336.08 190.34 337.56 248.86 341 302 344.44 355.14 349.84 402.90 344 419 338.16 435.10 321.08 419.55 304 404"></path><path class="hsu" d="M 192 259 C 200.56 258.69 209.11 258.38 222 256 234.89 253.62 252.11 249.18 264 245 275.89 240.82 282.44 236.91 289 233"></path><path class="hsu" d="M 181 383 C 195.38 378.49 209.76 373.98 224 370 238.24 366.02 252.36 362.58 265 361 277.64 359.42 288.82 359.71 300 360"></path></svg>