<svg xmlns="http://www.w3.org/2000/svg" viewbox="0 0 512 512"><title>日</title><metadata><rdf:RDF xmlns:cc="http://web.resource.org/cc/" xmlns:rdf="http://www.w3.org/1999/02/22-rdf-syntax-ns#"><cc:work rdf:about=""><cc:license rdf:resource="https://github.com/arthurhsu/calligraphy/blob/master/LICENSE"/></cc:work></rdf:RDF></metadata><g id="b0"><path fill="none" stroke="blue" stroke-width="16" stroke-linecap="round" d="M 135 147 C 150.44 155.84 165.89 164.69 173 191"></path><path fill="none" stroke="blue" stroke-width="16" stroke-linecap="round" d="M 173 191 C 180.11 217.31 178.89 261.09 178 297"></path><path fill="none" stroke="blue" stroke-width="16" stroke-linecap="round" d="M 178 297 C 177.11 332.91 176.56 360.96 176 389"></path></g><g id="b1"><path fill="none" stroke="blue" stroke-width="16" stroke-linecap="round" d="M 221 135 C 236.15 128.52 251.29 122.04 267 118"></path><path fill="none" stroke="blue" stroke-width="16" stroke-linecap="round" d="M 267 118 C 282.71 113.96 298.98 112.37 315 117"></path><path fill="none" stroke="blue" stroke-width="16" stroke-linecap="round" d="M 315 117 C 331.02 121.63 346.78 132.49 350 136"></path><path fill="none" stroke="blue" stroke-width="16" stroke-linecap="round" d="M 350 136 C 353.22 139.51 343.92 135.66 340 163"></path><path fill="none" stroke="blue" stroke-width="16" stroke-linecap="round" d="M 340 163 C 336.08 190.34 337.56 248.86 341 302"></path><path fill="none" stroke="blue" stroke-width="16" stroke-linecap="round" d="M 341 302 C 344.44 355.14 349.84 402.90 344 419"></path><path fill="none" stroke="blue" stroke-width="16" stroke-linecap="round" d="M 344 419 C 338.16 435.10 321.08 419.55 304 404"></path></g><g id="b2"><path fill="none" stroke="blue" stroke-width="16" stroke-linecap="round" d="M 192 259 C 200.56 258.69 209.11 258.38 222 256"></path><path fill="none" stroke="blue" stroke-width="16" stroke-linecap="round" d="M 222 256 C 234.89 253.62 252.11 249.18 264 245"></path><path fill="none" stroke="blue" stroke-width="16" stroke-linecap="round" d="M 264 245 C 275.89 240.82 282.44 236.91 289 233"></path></g><g id="b3"><path fill="none" stroke="blue" stroke-width="16" stroke-linecap="round" d="M 181 383 C 195.38 378.49 209.76 373.98 224 370"></path><path fill="none" stroke="blue" stroke-width="16" stroke-linecap="round" d="M 224 370 C 238.24 366.02 252.36 362.58 265 361"></path><path fill="none" stroke="blue" stroke-width="16" stroke-linecap="round" d="M 265 361 C 277.64 359.42 288.82 359.71 300 360"></path></g></svg>