<svg xmlns="http://www.w3.org/2000/svg" viewbox="0 0 512 512"><metadata><rdf:RDF xmlns:cc="http://web.resource.org/cc/" xmlns:rdf="http://www.w3.org/1999/02/22-rdf-syntax-ns#"><cc:work rdf:about=""><cc:license rdf:resource="https://github.com/arthurhsu/calligraphy/blob/master/LICENSE"/></cc:work></rdf:RDF></metadata><title>舌</title><g id="b0"><path fill="none" stroke="blue" stroke-width="16" stroke-linecap="round" d="M 297 99 C 305.85 104.98 314.70 110.96 317 114"></path><path fill="none" stroke="blue" stroke-width="16" stroke-linecap="round" d="M 317 114 C 319.30 117.04 315.04 117.13 300 125"></path><path fill="none" stroke="blue" stroke-width="16" stroke-linecap="round" d="M 300 125 C 284.96 132.88 259.13 148.54 242 156"></path><path fill="none" stroke="blue" stroke-width="16" stroke-linecap="round" d="M 242 156 C 224.87 163.46 216.43 162.73 208 162"></path></g><g id="b1"><path fill="none" stroke="blue" stroke-width="16" stroke-linecap="round" d="M 65 293 C 77.38 294.54 89.75 296.08 113 292"></path><path fill="none" stroke="blue" stroke-width="16" stroke-linecap="round" d="M 113 292 C 136.25 287.92 170.37 278.21 208 267"></path><path fill="none" stroke="blue" stroke-width="16" stroke-linecap="round" d="M 208 267 C 245.63 255.79 286.75 243.08 324 238"></path><path fill="none" stroke="blue" stroke-width="16" stroke-linecap="round" d="M 324 238 C 361.25 232.92 394.63 235.46 428 238"></path></g><g id="b2"><path fill="none" stroke="blue" stroke-width="16" stroke-linecap="round" d="M 254 186 C 260.32 191.09 266.63 196.18 270 199"></path><path fill="none" stroke="blue" stroke-width="16" stroke-linecap="round" d="M 270 199 C 273.37 201.82 273.79 202.38 273 217"></path><path fill="none" stroke="blue" stroke-width="16" stroke-linecap="round" d="M 273 217 C 272.21 231.63 270.20 260.32 268 281"></path><path fill="none" stroke="blue" stroke-width="16" stroke-linecap="round" d="M 268 281 C 265.80 301.68 263.40 314.34 261 327"></path></g><g id="b3"><path fill="none" stroke="blue" stroke-width="16" stroke-linecap="round" d="M 192 348 C 198.08 361.00 204.17 374.00 208 389"></path><path fill="none" stroke="blue" stroke-width="16" stroke-linecap="round" d="M 208 389 C 211.83 404.00 213.42 421.00 215 438"></path></g><g id="b4"><path fill="none" stroke="blue" stroke-width="16" stroke-linecap="round" d="M 232 346 C 241.73 340.20 251.46 334.41 265 330"></path><path fill="none" stroke="blue" stroke-width="16" stroke-linecap="round" d="M 265 330 C 278.54 325.59 295.88 322.58 316 322"></path><path fill="none" stroke="blue" stroke-width="16" stroke-linecap="round" d="M 316 322 C 336.12 321.42 359.02 323.28 366 326"></path><path fill="none" stroke="blue" stroke-width="16" stroke-linecap="round" d="M 366 326 C 372.98 328.72 364.03 332.31 356 344"></path><path fill="none" stroke="blue" stroke-width="16" stroke-linecap="round" d="M 356 344 C 347.97 355.69 340.85 375.48 335 389"></path><path fill="none" stroke="blue" stroke-width="16" stroke-linecap="round" d="M 335 389 C 329.15 402.52 324.58 409.76 320 417"></path></g><g id="b5"><path fill="none" stroke="blue" stroke-width="16" stroke-linecap="round" d="M 235 429 C 249.33 425.50 263.67 422.00 283 421"></path><path fill="none" stroke="blue" stroke-width="16" stroke-linecap="round" d="M 283 421 C 302.33 420.00 326.67 421.50 351 423"></path></g></svg>