<svg xmlns="http://www.w3.org/2000/svg" viewbox="0 0 512 512"><title>舌</title><metadata><rdf:RDF xmlns:cc="http://web.resource.org/cc/" xmlns:rdf="http://www.w3.org/1999/02/22-rdf-syntax-ns#"><cc:work rdf:about=""><cc:license rdf:resource="https://github.com/arthurhsu/calligraphy/blob/master/LICENSE"/></cc:work></rdf:RDF></metadata><path fill="none" stroke="blue" stroke-width="16" stroke-linecap="round" d="M 297 99 C 305.85 104.98 314.70 110.96 317 114 319.30 117.04 315.04 117.13 300 125 284.96 132.88 259.13 148.54 242 156 224.87 163.46 216.43 162.73 208 162"></path><path fill="none" stroke="blue" stroke-width="16" stroke-linecap="round" d="M 65 293 C 77.38 294.54 89.75 296.08 113 292 136.25 287.92 170.37 278.21 208 267 245.63 255.79 286.75 243.08 324 238 361.25 232.92 394.63 235.46 428 238"></path><path fill="none" stroke="blue" stroke-width="16" stroke-linecap="round" d="M 254 186 C 260.32 191.09 266.63 196.18 270 199 273.37 201.82 273.79 202.38 273 217 272.21 231.63 270.20 260.32 268 281 265.80 301.68 263.40 314.34 261 327"></path><path fill="none" stroke="blue" stroke-width="16" stroke-linecap="round" d="M 192 348 C 198.08 361.00 204.17 374.00 208 389 211.83 404.00 213.42 421.00 215 438"></path><path fill="none" stroke="blue" stroke-width="16" stroke-linecap="round" d="M 232 346 C 241.73 340.20 251.46 334.41 265 330 278.54 325.59 295.88 322.58 316 322 336.12 321.42 359.02 323.28 366 326 372.98 328.72 364.03 332.31 356 344 347.97 355.69 340.85 375.48 335 389 329.15 402.52 324.58 409.76 320 417"></path><path fill="none" stroke="blue" stroke-width="16" stroke-linecap="round" d="M 235 429 C 249.33 425.50 263.67 422.00 283 421 302.33 420.00 326.67 421.50 351 423"></path></svg>