<svg xmlns="http://www.w3.org/2000/svg" viewbox="0 0 512 512"><title>金</title><metadata><rdf:RDF xmlns:cc="http://web.resource.org/cc/" xmlns:rdf="http://www.w3.org/1999/02/22-rdf-syntax-ns#"><cc:work rdf:about=""><cc:license rdf:resource="https://github.com/arthurhsu/calligraphy/blob/master/LICENSE"/></cc:work></rdf:RDF></metadata><path fill="none" stroke="blue" stroke-width="16" stroke-linecap="round" d="M 262 70 C 245.96 94.11 229.91 118.22 206 155 182.09 191.78 150.31 241.22 123 273 95.69 304.78 72.84 318.89 50 333"></path><path fill="none" stroke="blue" stroke-width="16" stroke-linecap="round" d="M 249 95 C 265.85 111.33 282.70 127.67 309 154 335.30 180.33 371.04 216.67 402 244 432.96 271.33 459.13 289.67 473 299 486.87 308.33 488.43 308.67 490 309"></path><path fill="none" stroke="blue" stroke-width="16" stroke-linecap="round" d="M 200 222 C 208.91 224.91 217.82 227.82 235 226 252.18 224.18 277.62 217.62 292 214 306.38 210.38 309.69 209.69 313 209"></path><path fill="none" stroke="blue" stroke-width="16" stroke-linecap="round" d="M 178 315 C 191.89 311.36 205.78 307.71 228 303 250.22 298.29 280.78 292.51 300 291 319.22 289.49 327.11 292.24 335 295"></path><path fill="none" stroke="blue" stroke-width="16" stroke-linecap="round" d="M 258 230 C 261.58 256.67 265.17 283.33 266 314 266.83 344.67 264.92 379.33 263 414"></path><path fill="none" stroke="blue" stroke-width="16" stroke-linecap="round" d="M 180 363 C 184.83 374.92 189.67 386.83 197 388 204.33 389.17 214.17 379.58 224 370"></path><path fill="none" stroke="blue" stroke-width="16" stroke-linecap="round" d="M 326 335 C 333.58 338.25 341.17 341.50 339 348 336.83 354.50 324.92 364.25 313 374"></path><path fill="none" stroke="blue" stroke-width="16" stroke-linecap="round" d="M 151 443 C 177.60 436.44 204.20 429.89 231 426 257.80 422.11 284.80 420.89 310 422 335.20 423.11 358.60 426.56 382 430"></path></svg>