<svg xmlns="http://www.w3.org/2000/svg" viewbox="0 0 512 512"><metadata><rdf:RDF xmlns:cc="http://web.resource.org/cc/" xmlns:rdf="http://www.w3.org/1999/02/22-rdf-syntax-ns#"><cc:work rdf:about=""><cc:license rdf:resource="https://github.com/arthurhsu/calligraphy/blob/master/LICENSE"/></cc:work></rdf:RDF></metadata><title>金</title><g id="b0"><path fill="none" stroke="blue" stroke-width="16" stroke-linecap="round" d="M 255 82 C 222.17 133.08 189.33 184.17 157 225"></path><path fill="none" stroke="blue" stroke-width="16" stroke-linecap="round" d="M 157 225 C 124.67 265.83 92.83 296.42 61 327"></path></g><g id="b1"><path fill="none" stroke="blue" stroke-width="16" stroke-linecap="round" d="M 250 89 C 266.89 111.78 283.78 134.56 312 166"></path><path fill="none" stroke="blue" stroke-width="16" stroke-linecap="round" d="M 312 166 C 340.22 197.44 379.78 237.56 408 262"></path><path fill="none" stroke="blue" stroke-width="16" stroke-linecap="round" d="M 408 262 C 436.22 286.44 453.11 295.22 470 304"></path></g><g id="b2"><path fill="none" stroke="blue" stroke-width="16" stroke-linecap="round" d="M 197 227 C 208.53 230.00 220.07 233.00 232 231"></path><path fill="none" stroke="blue" stroke-width="16" stroke-linecap="round" d="M 232 231 C 243.93 229.00 256.27 222.00 268 217"></path><path fill="none" stroke="blue" stroke-width="16" stroke-linecap="round" d="M 268 217 C 279.73 212.00 290.87 209.00 302 206"></path></g><g id="b3"><path fill="none" stroke="blue" stroke-width="16" stroke-linecap="round" d="M 180 317 C 200.71 309.33 221.42 301.67 241 296"></path><path fill="none" stroke="blue" stroke-width="16" stroke-linecap="round" d="M 241 296 C 260.58 290.33 279.02 286.67 292 286"></path><path fill="none" stroke="blue" stroke-width="16" stroke-linecap="round" d="M 292 286 C 304.98 285.33 312.49 287.67 320 290"></path></g><g id="b4"><path fill="none" stroke="blue" stroke-width="16" stroke-linecap="round" d="M 249 234 C 253.00 230.67 257.00 227.33 259 256"></path><path fill="none" stroke="blue" stroke-width="16" stroke-linecap="round" d="M 259 256 C 261.00 284.67 261.00 345.33 261 406"></path></g><g id="b5"><path fill="none" stroke="blue" stroke-width="16" stroke-linecap="round" d="M 181 354 C 186.58 363.75 192.17 373.50 198 374"></path><path fill="none" stroke="blue" stroke-width="16" stroke-linecap="round" d="M 198 374 C 203.83 374.50 209.92 365.75 216 357"></path></g><g id="b6"><path fill="none" stroke="blue" stroke-width="16" stroke-linecap="round" d="M 317 326 C 326.25 329.92 335.50 333.83 334 339"></path><path fill="none" stroke="blue" stroke-width="16" stroke-linecap="round" d="M 334 339 C 332.50 344.17 320.25 350.58 308 357"></path></g><g id="b7"><path fill="none" stroke="blue" stroke-width="16" stroke-linecap="round" d="M 149 425 C 185.44 419.53 221.89 414.07 255 411"></path><path fill="none" stroke="blue" stroke-width="16" stroke-linecap="round" d="M 255 411 C 288.11 407.93 317.89 407.27 336 408"></path><path fill="none" stroke="blue" stroke-width="16" stroke-linecap="round" d="M 336 408 C 354.11 408.73 360.56 410.87 367 413"></path></g></svg>